<?xml version="1.0" standalone="no"?>
<!DOCTYPE svg PUBLIC "-//W3C//DTD SVG 20010904//EN"
 "http://www.w3.org/TR/2001/REC-SVG-20010904/DTD/svg10.dtd">
<svg version="1.0" xmlns="http://www.w3.org/2000/svg"
 width="204.000000pt" height="337.000000pt" viewBox="0 0 204.000000 337.000000"
 preserveAspectRatio="xMidYMid meet">

<g transform="translate(0.000000,337.000000) scale(0.100000,-0.100000)"
fill="#47b2e4" stroke="none">
<path d="M1885 3184 c-220 -53 -409 -230 -486 -454 -20 -59 -23 -91 -28 -345
l-6 -280 -29 -62 c-49 -106 -151 -184 -260 -199 l-46 -7 0 -167 0 -167 46 -7
c109 -15 211 -93 260 -199 l29 -62 6 -275 c7 -304 11 -331 76 -460 56 -111
180 -234 293 -288 92 -44 190 -72 258 -72 l42 0 0 164 0 164 -52 12 c-116 24
-200 91 -252 200 l-30 65 -7 280 c-5 247 -8 287 -26 335 -41 111 -92 195 -162
268 l-41 42 41 42 c71 73 121 157 162 268 18 48 21 89 26 335 l7 280 31 65
c51 109 135 176 251 200 l52 12 0 164 0 164 -47 -1 c-27 0 -75 -7 -108 -15z"/>
</g>
</svg>
