<?xml version="1.0" standalone="no"?>
<!DOCTYPE svg PUBLIC "-//W3C//DTD SVG 20010904//EN"
 "http://www.w3.org/TR/2001/REC-SVG-20010904/DTD/svg10.dtd">
<svg version="1.0" xmlns="http://www.w3.org/2000/svg"
 width="204.000000pt" height="337.000000pt" viewBox="0 0 204.000000 337.000000"
 preserveAspectRatio="xMidYMid meet">

<g transform="translate(0.000000,337.000000) scale(0.100000,-0.100000)"
fill="#47b2e4" stroke="none">
<path d="M0 3066 l0 -164 53 -12 c115 -24 199 -91 251 -200 l30 -65 7 -280 c5
-247 8 -287 26 -335 41 -111 92 -195 162 -268 l41 -42 -41 -42 c-71 -73 -121
-157 -162 -268 -18 -48 -21 -89 -26 -335 l-7 -280 -31 -65 c-51 -109 -135
-176 -250 -200 l-53 -12 0 -164 0 -164 43 0 c67 0 165 28 256 71 151 74 282
226 342 399 20 59 23 91 28 345 l6 280 29 62 c49 106 151 184 260 199 l46 7 0
167 0 167 -46 7 c-109 15 -211 93 -260 199 l-29 62 -6 275 c-7 304 -11 331
-76 460 -56 111 -180 234 -293 288 -92 44 -190 72 -257 72 l-43 0 0 -164z"/>
</g>
</svg>
